<svg xmlns="http://www.w3.org/2000/svg" xmlns:xlink="http://www.w3.org/1999/xlink" style="isolation:isolate" width="57.4pt" height="37.4pt" viewBox="0 0 57.4 37.4"><defs><clipPath id="_clipPath_FS6M8XQR0AHsgFd9KWM8KcuioncU6cgi"><rect width="57.4" height="37.4"/></clipPath></defs><g clip-path="url(#_clipPath_FS6M8XQR0AHsgFd9KWM8KcuioncU6cgi)"><g><g><clipPath id="_clipPath_5QvEuc1iP3DXzAO9nN5aWU7tKpkutegW"><path fill="#FFF" d="M 37.2 17.1 C 34.7 17.1 32.6 15 32.6 12.5 C 32.6 10 34.7 7.9 37.2 7.9 C 38.9 7.9 40.3 8.8 41.1 10.1 C 39.9 4.3 34.8 0 28.7 0 C 21.7 0 16.1 5.7 16.1 12.6 C 16.1 19.6 21.8 25.2 28.7 25.2 C 34.9 25.2 40 20.7 41.1 14.9 C 40.4 16.2 38.9 17.1 37.2 17.1 Z"/></clipPath><g clip-path="url(#_clipPath_5QvEuc1iP3DXzAO9nN5aWU7tKpkutegW)"><g><g><circle cx="28.8" cy="12.5" r="12.6" fill="#02AA69" vector-effect="non-scaling-stroke"/><circle cx="28.8" cy="12.5" r="12.6" fill="#02AB6A" vector-effect="non-scaling-stroke"/><circle cx="28.9" cy="12.5" r="12.5" fill="#02AC6A" vector-effect="non-scaling-stroke"/><circle cx="28.9" cy="12.5" r="12.5" fill="#02AD6B" vector-effect="non-scaling-stroke"/><circle cx="29" cy="12.5" r="12.4" fill="#02AE6C" vector-effect="non-scaling-stroke"/><circle cx="29" cy="12.5" r="12.4" fill="#02AF6D" vector-effect="non-scaling-stroke"/><circle cx="29.1" cy="12.5" r="12.3" fill="#02B06D" vector-effect="non-scaling-stroke"/><circle cx="29.2" cy="12.5" r="12.2" fill="#02B16E" vector-effect="non-scaling-stroke"/><circle cx="29.2" cy="12.5" r="12.2" fill="#02B26F" vector-effect="non-scaling-stroke"/><circle cx="29.3" cy="12.5" r="12.1" fill="#02B36F" vector-effect="non-scaling-stroke"/><circle cx="29.3" cy="12.5" r="12.1" fill="#02B470" vector-effect="non-scaling-stroke"/><circle cx="29.4" cy="12.5" r="12" fill="#02B571" vector-effect="non-scaling-stroke"/><circle cx="29.4" cy="12.5" r="12" fill="#02B672" vector-effect="non-scaling-stroke"/><circle cx="29.5" cy="12.5" r="11.9" fill="#02B772" vector-effect="non-scaling-stroke"/><circle cx="29.6" cy="12.5" r="11.8" fill="#01B873" vector-effect="non-scaling-stroke"/><circle cx="29.6" cy="12.5" r="11.8" fill="#01B974" vector-effect="non-scaling-stroke"/><circle cx="29.7" cy="12.5" r="11.7" fill="#01BA74" vector-effect="non-scaling-stroke"/><circle cx="29.7" cy="12.5" r="11.7" fill="#01BB75" vector-effect="non-scaling-stroke"/><circle cx="29.8" cy="12.5" r="11.6" fill="#01BC76" vector-effect="non-scaling-stroke"/><circle cx="29.8" cy="12.5" r="11.5" fill="#01BD77" vector-effect="non-scaling-stroke"/><circle cx="29.9" cy="12.5" r="11.5" fill="#01BE77" vector-effect="non-scaling-stroke"/><circle cx="30" cy="12.5" r="11.4" fill="#01BF78" vector-effect="non-scaling-stroke"/><circle cx="30" cy="12.5" r="11.4" fill="#01C079" vector-effect="non-scaling-stroke"/><circle cx="30.1" cy="12.5" r="11.3" fill="#01C179" vector-effect="non-scaling-stroke"/><circle cx="30.1" cy="12.5" r="11.3" fill="#01C27A" vector-effect="non-scaling-stroke"/><circle cx="30.2" cy="12.5" r="11.2" fill="#01C37B" vector-effect="non-scaling-stroke"/><circle cx="30.3" cy="12.5" r="11.1" fill="#01C47C" vector-effect="non-scaling-stroke"/><circle cx="30.3" cy="12.5" r="11.1" fill="#01C47C" vector-effect="non-scaling-stroke"/><circle cx="30.4" cy="12.5" r="11" fill="#01C57D" vector-effect="non-scaling-stroke"/><circle cx="30.4" cy="12.5" r="11" fill="#01C67E" vector-effect="non-scaling-stroke"/><circle cx="30.5" cy="12.5" r="10.9" fill="#01C77F" vector-effect="non-scaling-stroke"/><circle cx="30.5" cy="12.5" r="10.9" fill="#01C87F" vector-effect="non-scaling-stroke"/><circle cx="30.6" cy="12.5" r="10.8" fill="#01C980" vector-effect="non-scaling-stroke"/><circle cx="30.7" cy="12.5" r="10.7" fill="#01CA81" vector-effect="non-scaling-stroke"/><circle cx="30.7" cy="12.5" r="10.7" fill="#01CB81" vector-effect="non-scaling-stroke"/><circle cx="30.8" cy="12.5" r="10.6" fill="#01CC82" vector-effect="non-scaling-stroke"/><circle cx="30.8" cy="12.5" r="10.6" fill="#01CD83" vector-effect="non-scaling-stroke"/><circle cx="30.9" cy="12.5" r="10.5" fill="#01CE84" vector-effect="non-scaling-stroke"/><circle cx="30.9" cy="12.5" r="10.5" fill="#01CF84" vector-effect="non-scaling-stroke"/><circle cx="31" cy="12.5" r="10.4" fill="#01D085" vector-effect="non-scaling-stroke"/><circle cx="31.1" cy="12.5" r="10.3" fill="#00D186" vector-effect="non-scaling-stroke"/><circle cx="31.1" cy="12.5" r="10.3" fill="#00D286" vector-effect="non-scaling-stroke"/><circle cx="31.2" cy="12.5" r="10.2" fill="#00D387" vector-effect="non-scaling-stroke"/><circle cx="31.2" cy="12.5" r="10.2" fill="#00D488" vector-effect="non-scaling-stroke"/><circle cx="31.3" cy="12.5" r="10.1" fill="#00D589" vector-effect="non-scaling-stroke"/><circle cx="31.3" cy="12.5" r="10.1" fill="#00D689" vector-effect="non-scaling-stroke"/><circle cx="31.4" cy="12.5" r="10" fill="#00D78A" vector-effect="non-scaling-stroke"/><circle cx="31.5" cy="12.5" r="9.9" fill="#00D88B" vector-effect="non-scaling-stroke"/><circle cx="31.5" cy="12.5" r="9.9" fill="#00D98B" vector-effect="non-scaling-stroke"/><circle cx="31.6" cy="12.5" r="9.8" fill="#00DA8C" vector-effect="non-scaling-stroke"/><circle cx="31.6" cy="12.5" r="9.8" fill="#00DB8D" vector-effect="non-scaling-stroke"/><circle cx="31.7" cy="12.5" r="9.7" fill="#00DC8E" vector-effect="non-scaling-stroke"/><circle cx="31.7" cy="12.5" r="9.7" fill="#00DD8E" vector-effect="non-scaling-stroke"/><circle cx="31.8" cy="12.5" r="9.6" fill="#00DE8F" vector-effect="non-scaling-stroke"/></g><g><g><clipPath id="_clipPath_mBAWTYkD1VZKE0FgPYxOmigww6ySGt3o"><circle cx="28.8" cy="12.5" r="12.6" fill="#FFF" vector-effect="non-scaling-stroke"/></clipPath><g clip-path="url(#_clipPath_mBAWTYkD1VZKE0FgPYxOmigww6ySGt3o)"><g><path d="M -3.489 -28.214 L 20.061 -28.214 L 20.061 -4.664 L -3.489 -4.664 L -3.489 -28.214 Z" style="stroke:none;fill:#f0f0f0;stroke-miterlimit:10"/></g></g></g></g><path fill="none" d="M 37.2 17.1 C 34.6 17.1 32.6 15 32.6 12.5 C 32.6 10 34.7 7.9 37.2 7.9 C 38.8 7.9 40.3 8.7 41.1 10 C 39.9 4.2 34.8 -0.1 28.7 -0.1 C 21.7 -0.1 16.1 5.6 16.1 12.5 C 16.1 19.4 21.8 25.1 28.7 25.1 C 34.9 25.1 40 20.7 41.1 14.9 C 40.3 16.2 38.9 17.1 37.2 17.1 Z"/></g></g></g></g><g><path fill="#13181F" d="M 2.3 30.9 C 3 30.9 3.5 31.3 3.6 31.8 L 4.5 31.8 C 4.3 30.8 3.5 30.2 2.3 30.2 C 0.9 30.2 0 31.2 0 32.7 C 0 34.2 1 35.2 2.3 35.2 C 3.5 35.2 4.3 34.5 4.5 33.6 L 3.6 33.6 C 3.4 34.2 3 34.5 2.3 34.5 C 1.4 34.5 0.8 33.9 0.8 32.7 C 0.7 31.6 1.4 30.9 2.3 30.9 Z"/><path fill="#13181F" d="M 7.6 30.3 C 6.9 30.3 6.3 30.6 6 31.1 L 6 28.7 L 5.2 28.7 L 5.2 35.1 L 6 35.1 L 6 32.5 C 6 31.5 6.6 31 7.4 31 C 8.2 31 8.7 31.5 8.7 32.5 L 8.7 35.2 L 9.5 35.2 L 9.5 32.4 C 9.5 30.9 8.7 30.3 7.6 30.3 Z"/><path fill="#13181F" d="M 11.4 31.1 L 11.4 30.3 L 10.6 30.3 L 10.6 35.1 L 11.4 35.1 L 11.4 32.5 C 11.4 31.4 12 31.1 12.7 31.1 L 12.9 31.1 L 12.9 30.3 C 12.2 30.3 11.6 30.6 11.4 31.1 Z"/><path fill="#13181F" d="M 15.6 30.3 C 14.3 30.3 13.2 31.2 13.2 32.8 C 13.2 34.3 14.2 35.3 15.6 35.3 C 17 35.3 18 34.3 18 32.8 C 18 31.2 17 30.3 15.6 30.3 Z M 15.6 34.5 C 14.8 34.5 14 33.9 14 32.7 C 14 31.5 14.8 30.9 15.6 30.9 C 16.4 30.9 17.2 31.5 17.2 32.7 C 17.2 33.9 16.4 34.5 15.6 34.5 Z"/><path fill="#13181F" d="M 21.2 30.3 C 20.6 30.3 20 30.6 19.7 31.1 L 19.7 30.4 L 18.9 30.4 L 18.9 35.2 L 19.7 35.2 L 19.7 32.5 C 19.7 31.5 20.3 31 21.1 31 C 21.9 31 22.4 31.5 22.4 32.5 L 22.4 35.2 L 23.2 35.2 L 23.2 32.4 C 23.1 30.9 22.3 30.3 21.2 30.3 Z"/><path fill="#13181F" d="M 26.3 30.3 C 25 30.3 23.9 31.2 23.9 32.8 C 23.9 34.3 24.9 35.3 26.3 35.3 C 27.7 35.3 28.7 34.3 28.7 32.8 C 28.7 31.2 27.7 30.3 26.3 30.3 Z M 26.3 34.5 C 25.5 34.5 24.7 33.9 24.7 32.7 C 24.7 31.5 25.5 30.9 26.3 30.9 C 27.1 30.9 27.9 31.5 27.9 32.7 C 27.9 33.9 27.1 34.5 26.3 34.5 Z"/><path fill="#13181F" d="M 30.3 31.6 C 30.3 31.2 30.6 30.9 31.2 30.9 C 31.8 30.9 32.2 31.2 32.2 31.7 L 33 31.7 C 32.9 30.8 32.3 30.2 31.2 30.2 C 30.1 30.2 29.5 30.8 29.5 31.5 C 29.5 33.3 32.3 32.7 32.3 33.7 C 32.3 34.1 32 34.4 31.3 34.4 C 30.6 34.4 30.2 34.1 30.2 33.6 L 29.4 33.6 C 29.5 34.5 30.2 35.1 31.3 35.1 C 32.4 35.1 33 34.5 33 33.7 C 33 32.1 30.3 32.7 30.3 31.6 Z"/><path fill="#13181F" d="M 36.5 30.3 C 35.6 30.3 35 30.8 34.7 31.3 L 34.7 30.4 L 33.9 30.4 L 33.9 37.4 L 34.7 37.4 L 34.7 34.3 C 35 34.8 35.6 35.3 36.5 35.3 C 37.8 35.3 38.8 34.3 38.8 32.8 C 38.7 31.2 37.7 30.3 36.5 30.3 Z M 36.3 34.5 C 35.4 34.5 34.7 33.8 34.7 32.7 C 34.7 31.6 35.5 30.9 36.3 30.9 C 37.2 30.9 37.9 31.5 37.9 32.7 C 37.9 33.9 37.2 34.5 36.3 34.5 Z"/><path fill="#13181F" d="M 41.9 30.3 C 41.2 30.3 40.6 30.6 40.3 31.1 L 40.3 28.7 L 39.5 28.7 L 39.5 35.1 L 40.3 35.1 L 40.3 32.5 C 40.3 31.5 40.9 31 41.7 31 C 42.5 31 43 31.5 43 32.5 L 43 35.2 L 43.8 35.2 L 43.8 32.4 C 43.8 30.9 43 30.3 41.9 30.3 Z"/><path fill="#13181F" d="M 47 30.3 C 45.6 30.3 44.6 31.2 44.6 32.8 C 44.6 34.3 45.6 35.3 47 35.3 C 48.2 35.3 48.9 34.6 49.2 33.8 L 48.3 33.8 C 48.1 34.3 47.7 34.7 47 34.7 C 46.2 34.7 45.5 34.2 45.5 33.2 L 49.3 33.2 C 49.3 33 49.3 32.9 49.3 32.7 C 49.3 31.2 48.4 30.3 47 30.3 Z M 45.4 32.4 C 45.5 31.5 46.1 31 46.9 31 C 47.7 31 48.4 31.5 48.4 32.4 L 45.4 32.4 Z"/><path fill="#13181F" d="M 50.9 31.1 L 50.9 30.3 L 50.1 30.3 L 50.1 35.1 L 50.9 35.1 L 50.9 32.5 C 50.9 31.4 51.5 31.1 52.2 31.1 L 52.4 31.1 L 52.4 30.3 C 51.7 30.3 51.1 30.6 50.9 31.1 Z"/><path fill="#13181F" d="M 57.4 32.5 C 57.4 31.2 56.5 30.2 55.1 30.2 C 53.7 30.2 52.7 31.1 52.7 32.7 C 52.7 34.2 53.7 35.2 55.1 35.2 C 56.3 35.2 57 34.5 57.3 33.7 L 56.4 33.7 C 56.2 34.2 55.8 34.6 55.1 34.6 C 54.3 34.6 53.6 34.1 53.6 33.1 L 57.4 33.1 C 57.3 32.9 57.4 32.7 57.4 32.5 Z M 53.5 32.4 C 53.6 31.5 54.2 31 55 31 C 55.8 31 56.5 31.5 56.5 32.4 L 53.5 32.4 Z"/></g></g></svg>