<svg xmlns="http://www.w3.org/2000/svg" xmlns:svg="http://www.w3.org/2000/svg" id="svg2" width="1122.52" height="793.707" version="1.1" viewBox="0 0 1122.52 793.707" xml:space="preserve"><metadata id="metadata8"/><defs id="defs6"><clipPath id="clipPath18" clipPathUnits="userSpaceOnUse"><path id="path16" d="M 0,595.28 H 841.89 V 0 H 0 Z"/></clipPath><clipPath id="clipPath30" clipPathUnits="userSpaceOnUse"><path id="path28" d="m 455.114,280.806 h 53.983 v -34.065 h -53.983 z"/></clipPath><clipPath id="clipPath34" clipPathUnits="userSpaceOnUse"><path id="path32" d="m 495.334,280.806 c -6.019,-17.242 -20.98,-30.8 -40.221,-34.065 0,0 43.484,2.514 53.985,28.955 l -9.848,3.656 z"/></clipPath><linearGradient id="linearGradient44" x1="0" x2="1" y1="0" y2="0" gradientTransform="matrix(53.983677,0,0,-53.983677,455.11362,263.77341)" gradientUnits="userSpaceOnUse" spreadMethod="pad"><stop style="stop-opacity:0;stop-color:#fff" id="stop40" offset="0"/><stop style="stop-opacity:1;stop-color:#fff" id="stop42" offset="1"/></linearGradient><mask id="mask46" width="1" height="1" x="0" y="0" maskUnits="userSpaceOnUse"><g id="g56"><g id="g54"><g id="g52"><g id="g50"><path style="fill:url(#linearGradient44);stroke:none" id="path48" d="M -32768,32767 H 32767 V -32768 H -32768 Z"/></g></g></g></g></mask><linearGradient id="linearGradient62" x1="0" x2="1" y1="0" y2="0" gradientTransform="matrix(53.983677,0,0,-53.983677,455.11362,263.77341)" gradientUnits="userSpaceOnUse" spreadMethod="pad"><stop style="stop-opacity:1;stop-color:#1d1d1b" id="stop58" offset="0"/><stop style="stop-opacity:1;stop-color:#1d1d1b" id="stop60" offset="1"/></linearGradient><clipPath id="clipPath88" clipPathUnits="userSpaceOnUse"><path id="path86" d="m 410.369,343.536 h 72.108 v -91.502 h -72.108 z"/></clipPath><clipPath id="clipPath92" clipPathUnits="userSpaceOnUse"><path id="path90" d="m 470.58,343.536 -60.21,-82.872 c 3.516,-3.416 7.525,-6.319 11.895,-8.63 l 60.212,82.874 c -3.516,3.416 -7.528,6.315 -11.897,8.628"/></clipPath><linearGradient id="linearGradient102" x1="0" x2="1" y1="0" y2="0" gradientTransform="matrix(-20.034058,-28.813026,-28.813026,20.034058,440.46149,289.21188)" gradientUnits="userSpaceOnUse" spreadMethod="pad"><stop style="stop-opacity:0;stop-color:#fff" id="stop98" offset="0"/><stop style="stop-opacity:1;stop-color:#fff" id="stop100" offset="1"/></linearGradient><mask id="mask104" width="1" height="1" x="0" y="0" maskUnits="userSpaceOnUse"><g id="g114"><g id="g112"><g id="g110"><g id="g108"><path style="fill:url(#linearGradient102);stroke:none" id="path106" d="M -32768,32767 H 32767 V -32768 H -32768 Z"/></g></g></g></g></mask><linearGradient id="linearGradient120" x1="0" x2="1" y1="0" y2="0" gradientTransform="matrix(-20.034058,-28.813026,-28.813026,20.034058,440.46149,289.21188)" gradientUnits="userSpaceOnUse" spreadMethod="pad"><stop style="stop-opacity:1;stop-color:#1d1d1b" id="stop116" offset="0"/><stop style="stop-opacity:1;stop-color:#1d1d1b" id="stop118" offset="1"/></linearGradient><clipPath id="clipPath158" clipPathUnits="userSpaceOnUse"><path id="path156" d="m 613.779,358.805 h 31.546 v -47.561 h -31.546 z"/></clipPath><clipPath id="clipPath162" clipPathUnits="userSpaceOnUse"><path id="path160" d="m 635.758,358.805 c -9.068,-4.487 -16.683,-11.499 -21.979,-20.141 4.89,-8.008 7.767,-17.369 7.767,-27.421 0,15.727 9.896,29.16 23.778,34.481 z"/></clipPath><linearGradient id="linearGradient172" x1="0" x2="1" y1="0" y2="0" gradientTransform="matrix(-13.778205,-14.118408,-14.118408,13.778205,632.59753,341.22482)" gradientUnits="userSpaceOnUse" spreadMethod="pad"><stop style="stop-opacity:0;stop-color:#fff" id="stop168" offset="0"/><stop style="stop-opacity:1;stop-color:#fff" id="stop170" offset="1"/></linearGradient><mask id="mask174" width="1" height="1" x="0" y="0" maskUnits="userSpaceOnUse"><g id="g184"><g id="g182"><g id="g180"><g id="g178"><path style="fill:url(#linearGradient172);stroke:none" id="path176" d="M -32768,32767 H 32767 V -32768 H -32768 Z"/></g></g></g></g></mask><linearGradient id="linearGradient190" x1="0" x2="1" y1="0" y2="0" gradientTransform="matrix(-13.778205,-14.118408,-14.118408,13.778205,632.59753,341.22482)" gradientUnits="userSpaceOnUse" spreadMethod="pad"><stop style="stop-opacity:1;stop-color:#1d1d1b" id="stop186" offset="0"/><stop style="stop-opacity:1;stop-color:#1d1d1b" id="stop188" offset="1"/></linearGradient><clipPath id="clipPath236" clipPathUnits="userSpaceOnUse"><path id="path234" d="m 206.198,280.806 h 53.983 v -34.065 h -53.983 z"/></clipPath><clipPath id="clipPath240" clipPathUnits="userSpaceOnUse"><path id="path238" d="m 246.418,280.806 c -6.018,-17.242 -20.98,-30.8 -40.22,-34.065 0,0 43.483,2.514 53.983,28.955 l -9.847,3.656 z"/></clipPath><linearGradient id="linearGradient250" x1="0" x2="1" y1="0" y2="0" gradientTransform="matrix(53.983677,0,0,-53.983677,206.19771,263.77341)" gradientUnits="userSpaceOnUse" spreadMethod="pad"><stop style="stop-opacity:0;stop-color:#fff" id="stop246" offset="0"/><stop style="stop-opacity:1;stop-color:#fff" id="stop248" offset="1"/></linearGradient><mask id="mask252" width="1" height="1" x="0" y="0" maskUnits="userSpaceOnUse"><g id="g262"><g id="g260"><g id="g258"><g id="g256"><path style="fill:url(#linearGradient250);stroke:none" id="path254" d="M -32768,32767 H 32767 V -32768 H -32768 Z"/></g></g></g></g></mask><linearGradient id="linearGradient268" x1="0" x2="1" y1="0" y2="0" gradientTransform="matrix(53.983677,0,0,-53.983677,206.19771,263.77341)" gradientUnits="userSpaceOnUse" spreadMethod="pad"><stop style="stop-opacity:1;stop-color:#1d1d1b" id="stop264" offset="0"/><stop style="stop-opacity:1;stop-color:#1d1d1b" id="stop266" offset="1"/></linearGradient><clipPath id="clipPath294" clipPathUnits="userSpaceOnUse"><path id="path292" d="m 161.454,343.536 h 72.107 v -91.502 h -72.107 z"/></clipPath><clipPath id="clipPath298" clipPathUnits="userSpaceOnUse"><path id="path296" d="m 221.664,343.536 -60.21,-82.872 c 3.516,-3.416 7.525,-6.319 11.895,-8.63 l 60.212,82.874 c -3.516,3.416 -7.528,6.315 -11.897,8.628"/></clipPath><linearGradient id="linearGradient308" x1="0" x2="1" y1="0" y2="0" gradientTransform="matrix(-20.034058,-28.813026,-28.813026,20.034058,191.54559,289.21188)" gradientUnits="userSpaceOnUse" spreadMethod="pad"><stop style="stop-opacity:0;stop-color:#fff" id="stop304" offset="0"/><stop style="stop-opacity:1;stop-color:#fff" id="stop306" offset="1"/></linearGradient><mask id="mask310" width="1" height="1" x="0" y="0" maskUnits="userSpaceOnUse"><g id="g320"><g id="g318"><g id="g316"><g id="g314"><path style="fill:url(#linearGradient308);stroke:none" id="path312" d="M -32768,32767 H 32767 V -32768 H -32768 Z"/></g></g></g></g></mask><linearGradient id="linearGradient326" x1="0" x2="1" y1="0" y2="0" gradientTransform="matrix(-20.034058,-28.813026,-28.813026,20.034058,191.54559,289.21188)" gradientUnits="userSpaceOnUse" spreadMethod="pad"><stop style="stop-opacity:1;stop-color:#1d1d1b" id="stop322" offset="0"/><stop style="stop-opacity:1;stop-color:#1d1d1b" id="stop324" offset="1"/></linearGradient></defs><g id="g10" transform="matrix(1.3333333,0,0,-1.3333333,0,793.70667)"><g id="g12"><g id="g14" clip-path="url(#clipPath18)"><g id="g20" transform="translate(404.5474,328.2131)"><path style="fill:#888;fill-opacity:1;fill-rule:nonzero;stroke:none" id="path22" d="M 0,0 C 15.336,21.108 43.636,27.211 66.045,15.343 L 5.817,-67.553 C -12.395,-49.91 -15.336,-21.108 0,0 m 90.776,-47.397 c -1.629,-4.69 -3.954,-9.227 -7.025,-13.452 C 68.416,-81.958 40.116,-88.061 17.707,-76.192 L 77.935,6.705 77.936,6.704 86.643,18.688 C 84.846,20.323 82.951,21.882 80.94,23.343 51.246,44.918 9.683,38.335 -11.892,8.64 -33.466,-21.055 -26.883,-62.617 2.812,-84.192 c 29.694,-21.574 71.257,-14.992 92.831,14.703 3.876,5.334 6.82,11.058 8.907,16.973 z"/></g><g id="g24"><g id="g80"><g id="g78" clip-path="url(#clipPath30)" opacity=".4"><g id="g76"><g id="g74" clip-path="url(#clipPath34)"><g id="g72"><g id="g70" mask="url(#mask46)"><g id="g68"><path style="fill:url(#linearGradient62);stroke:none" id="path66" d="m 495.334,280.806 c -6.019,-17.242 -20.98,-30.8 -40.221,-34.065 0,0 43.484,2.514 53.985,28.955 l -9.848,3.656 z"/></g></g></g></g></g></g></g></g><g id="g82"><g id="g138"><g id="g136" clip-path="url(#clipPath88)" opacity=".4"><g id="g134"><g id="g132" clip-path="url(#clipPath92)"><g id="g130"><g id="g128" mask="url(#mask104)"><g id="g126"><path style="fill:url(#linearGradient120);stroke:none" id="path124" d="m 470.58,343.536 -60.21,-82.872 c 3.516,-3.416 7.525,-6.319 11.895,-8.63 l 60.212,82.874 c -3.516,3.416 -7.528,6.315 -11.897,8.628"/></g></g></g></g></g></g></g></g><g id="g140" transform="translate(155.6313,328.2131)"><path style="fill:#888;fill-opacity:1;fill-rule:nonzero;stroke:none" id="path142" d="M 0,0 C 15.336,21.108 43.637,27.211 66.045,15.343 L 5.817,-67.553 C -12.395,-49.91 -15.336,-21.108 0,0 m 90.776,-47.397 c -1.629,-4.69 -3.954,-9.227 -7.024,-13.452 C 68.416,-81.958 40.116,-88.061 17.707,-76.192 L 77.935,6.705 77.936,6.704 86.643,18.688 C 84.846,20.323 82.951,21.882 80.94,23.343 51.246,44.918 9.683,38.335 -11.892,8.64 -33.466,-21.055 -26.883,-62.617 2.812,-84.192 c 29.694,-21.574 71.257,-14.992 92.832,14.703 3.875,5.334 6.819,11.058 8.907,16.973 z"/></g><g id="g144" transform="translate(621.5459,234.8279)"><path style="fill:#888;fill-opacity:1;fill-rule:nonzero;stroke:none" id="path146" d="m 0,0 h -15.997 v 76.416 c 0,20.372 -16.579,36.95 -36.957,36.95 -20.372,0 -36.95,-16.578 -36.95,-36.95 V 0 h -15.998 v 76.416 c 0,29.195 23.753,52.948 52.948,52.948 C -23.752,129.364 0,105.611 0,76.416 Z"/></g><g id="g148" transform="translate(711.2949,234.8279)"><path style="fill:#888;fill-opacity:1;fill-rule:nonzero;stroke:none" id="path150" d="m 0,0 h -15.686 c -0.085,0 -0.156,0.069 -0.156,0.155 v 74.816 c 0,19.742 -14.859,37.074 -34.562,38.32 -21.455,1.355 -39.345,-15.713 -39.345,-36.875 V 0.155 C -89.749,0.069 -89.818,0 -89.904,0 h -15.687 c -0.086,0 -0.155,0.069 -0.155,0.155 v 74.574 c 0,28.56 21.896,53.241 50.425,54.575 30.341,1.42 55.477,-22.854 55.477,-52.888 V 0.155 C 0.156,0.069 0.086,0 0,0"/></g><g id="g152"><g id="g208"><g id="g206" clip-path="url(#clipPath158)" opacity=".4"><g id="g204"><g id="g202" clip-path="url(#clipPath162)"><g id="g200"><g id="g198" mask="url(#mask174)"><g id="g196"><path style="fill:url(#linearGradient190);stroke:none" id="path194" d="m 635.758,358.805 c -9.068,-4.487 -16.683,-11.499 -21.979,-20.141 4.89,-8.008 7.767,-17.369 7.767,-27.421 0,15.727 9.896,29.16 23.778,34.481 z"/></g></g></g></g></g></g></g></g><g id="g210" transform="translate(311.3613,338.9992)"><path style="fill:#ff470e;fill-opacity:1;fill-rule:nonzero;stroke:none" id="path212" d="m 0,0 -15.833,21.793 h -41.679 l 36.673,-50.476 z"/></g><g id="g214" transform="translate(320.4443,326.4978)"><path style="fill:#e84b1f;fill-opacity:1;fill-rule:nonzero;stroke:none" id="path216" d="m 0,0 -20.839,-28.683 45.685,-62.88 h 41.678 z"/></g><g id="g218" transform="translate(320.4087,269.1814)"><path style="fill:#ffe100;fill-opacity:1;fill-rule:nonzero;stroke:none" id="path220" d="M 0,0 24.882,-34.247 H 66.56 L 20.839,28.682 Z"/></g><g id="g222" transform="translate(320.4087,269.1814)"><path style="fill:#f9be00;fill-opacity:1;fill-rule:nonzero;stroke:none" id="path224" d="m 0,0 20.839,28.682 6.445,-8.859 z"/></g><g id="g226" transform="translate(345.29,360.7922)"><path style="fill:#3e81f6;fill-opacity:1;fill-rule:nonzero;stroke:none" id="path228" d="m 0,0 -91.44,-125.858 h 41.677 L 41.678,0 Z"/></g><g id="g230"><g id="g286"><g id="g284" clip-path="url(#clipPath236)" opacity=".4"><g id="g282"><g id="g280" clip-path="url(#clipPath240)"><g id="g278"><g id="g276" mask="url(#mask252)"><g id="g274"><path style="fill:url(#linearGradient268);stroke:none" id="path272" d="m 246.418,280.806 c -6.018,-17.242 -20.98,-30.8 -40.22,-34.065 0,0 43.483,2.514 53.983,28.955 l -9.847,3.656 z"/></g></g></g></g></g></g></g></g><g id="g288"><g id="g344"><g id="g342" clip-path="url(#clipPath294)" opacity=".4"><g id="g340"><g id="g338" clip-path="url(#clipPath298)"><g id="g336"><g id="g334" mask="url(#mask310)"><g id="g332"><path style="fill:url(#linearGradient326);stroke:none" id="path330" d="m 221.664,343.536 -60.21,-82.872 c 3.516,-3.416 7.525,-6.319 11.895,-8.63 l 60.212,82.874 c -3.516,3.416 -7.528,6.315 -11.897,8.628"/></g></g></g></g></g></g></g></g></g></g></g></svg>