<svg xmlns="http://www.w3.org/2000/svg" xmlns:svg="http://www.w3.org/2000/svg" id="svg2" width="238.093" height="152.587" version="1.1" viewBox="0 0 238.093 152.587" xml:space="preserve"><metadata id="metadata8"/><g id="g10" transform="matrix(1.3333333,0,0,-1.3333333,0,152.58667)"><g id="g12" transform="scale(0.1)"><path style="fill:#537fc9;fill-opacity:1;fill-rule:nonzero;stroke:none" id="path14" d="M 0,1144.38 V 0 H 16.9492 L 672.109,1144.38 H 0"/><path style="fill:#151922;fill-opacity:1;fill-rule:nonzero;stroke:none" id="path16" d="M 643.766,1144.38 0,0 H 1785.66 V 1144.38 H 643.766"/><path style="fill:#fff;fill-opacity:1;fill-rule:nonzero;stroke:none" id="path18" d="m 725.598,531.754 c -29.141,21.473 -58.789,32.215 -88.965,32.215 -60.578,0 -90.86,-22.93 -90.86,-68.739 0,-19.406 16.082,-42.558 48.153,-69.464 l 56.789,-48.36 c 17.547,-15.066 29.715,-26.093 36.484,-32.996 6.797,-6.906 13.926,-16.523 21.473,-28.828 7.5,-12.336 13.144,-24.785 16.894,-37.336 3.75,-12.558 5.676,-25.398 5.676,-38.457 0,-50.566 -18.926,-90 -56.679,-118.41 -37.805,-28.4181 -86.817,-42.5704 -147.051,-42.5704 -49.446,0 -96.133,10.6797 -140.059,32.1404 l 31.688,96.516 c 33.605,-25.399 72.648,-38.094 117.082,-38.094 26.863,0 49.14,5.703 66.824,17.168 17.707,11.473 26.555,27.801 26.555,48.914 0,20.891 -16.086,43.938 -48.243,69.102 l -59.16,47.207 c -18.097,14.601 -30.332,25.148 -36.75,31.691 -6.386,6.512 -13.144,15.664 -20.136,27.371 -7.071,11.699 -12.333,23.664 -15.84,36.028 -3.516,12.363 -5.282,25.027 -5.282,38.144 0,50.84 16.844,91.055 50.547,120.762 33.711,29.676 77.84,44.539 132.403,44.539 18.093,0 41.238,-2.051 69.375,-6.219 28.211,-4.121 47.929,-8.84 59.257,-14.094 l -30.175,-98.23"/><path style="fill:#fff;fill-opacity:1;fill-rule:nonzero;stroke:none" id="path20" d="M 1012.63,80.4883 H 959.27 L 848.371,640.141 h 104.746 l 66.333,-364.805 193.52,364.805 H 1322.5 L 1012.63,80.4883"/><path style="fill:#fff;fill-opacity:1;fill-rule:nonzero;stroke:none" id="path22" d="M 1657.58,88.1016 1543.26,647.758 h -34.74 L 1173.21,88.1016 h 102.47 l 64.71,112.6174 h 197.33 L 1555.11,88.1016 Z M 1526.75,274.359 h -144.64 l 113.22,205.606 31.42,-205.606"/></g></g></svg>